<svg
  preserveAspectRatio="none"
  width="100%"
  height="100%"
  viewBox="0 0 76 29.5"
  fill="none"
  xmlns="http://www.w3.org/2000/svg"
>
  <path
    d="M56 29.5H49.5V12L56 24.5V29.5Z"
    fill="#31AAA0"
  />
  <path
    d="M76 1L60.5 29.5L49.5 7H43.5L35.5 0H54L60.5 15.5L68.5 1H76Z"
    fill="#31AAA0"
  />
  <path
    d="M62.5 7H59.5L56.5 1H66L62.5 7Z"
    fill="#31AAA0"
  />
  <path
    d="M6.5 29.5H0V0.5H6.5L14 11L22 0.5H30L14 22L6.5 12V29.5Z"
    fill="#1A2C2A"
  />
  <path
    d="M21.5 18V29.5H35.5C53.5 24.5 48.5 1 35.5 0.5L30 7H35.5C43.5 11.5 41.5 20 35.5 23H28V9.5L21.5 18Z"
    fill="#1A2C2A"
  />
</svg>
